<?xml version="1.0" encoding="iso-8859-1"?>
<!-- Generator: Adobe Illustrator 19.0.0, SVG Export Plug-In . SVG Version: 6.00 Build 0)  -->
<svg version="1.1" id="Layer_1" xmlns="http://www.w3.org/2000/svg" xmlns:xlink="http://www.w3.org/1999/xlink" x="0px" y="0px"
	 viewBox="0 0 383.916 383.916" style="enable-background:new 0 0 383.916 383.916;" xml:space="preserve">
<g>
	<path d="M331.958,69.428c-7.441,0-14.5,1.646-20.852,4.573c-4.309-23.218-24.7-40.859-49.148-40.859
		c-7.68,0-14.958,1.745-21.467,4.852C235.099,16.205,215.39,0,191.958,0s-43.141,16.205-48.533,37.994
		c-6.508-3.107-13.787-4.852-21.467-4.852c-27.57,0-50,22.43-50,50v26.759c-6.129-2.686-12.891-4.187-20-4.187
		c-27.57,0-50,22.43-50,50v95.461c0,60.377,30.286,121.844,31.575,124.431l4.141,8.31h308.568l4.142-8.31
		c1.289-2.587,31.574-64.054,31.574-124.431V119.428C381.958,91.858,359.528,69.428,331.958,69.428z M351.958,251.175
		c0,41.223-16.9,84.903-24.64,102.741H56.587c-7.744-17.808-24.629-61.383-24.629-102.741v-95.461c0-11.028,8.972-20,20-20
		s20,8.972,20,20v89.283h30V83.143c0-11.028,8.972-20,20-20s20,8.972,20,20v36.286h30V50c0-11.028,8.972-20,20-20
		c11.028,0,20,8.972,20,20v69.428h30V83.143c0-11.028,8.972-20,20-20s20,8.972,20,20v36.286h30c0-11.028,8.972-20,20-20
		s20,8.972,20,20V251.175z"/>
</g>
<g>
</g>
<g>
</g>
<g>
</g>
<g>
</g>
<g>
</g>
<g>
</g>
<g>
</g>
<g>
</g>
<g>
</g>
<g>
</g>
<g>
</g>
<g>
</g>
<g>
</g>
<g>
</g>
<g>
</g>
</svg>
